<?xml version="1.0" encoding="utf-8"?>
<!-- Generator: Adobe Illustrator 18.0.0, SVG Export Plug-In . SVG Version: 6.00 Build 0)  -->
<!DOCTYPE svg PUBLIC "-//W3C//DTD SVG 1.1//EN" "http://www.w3.org/Graphics/SVG/1.1/DTD/svg11.dtd">
<svg version="1.1" id="Layer_1" xmlns="http://www.w3.org/2000/svg" xmlns:xlink="http://www.w3.org/1999/xlink" x="0px" y="0px"
	 viewBox="0 0 512 512" enable-background="new 0 0 512 512" xml:space="preserve">
<g>
	<path fill="#E0E6ED" d="M111.6,112.1c-53.5,53.5-53.6,140.4-0.1,193.9c45.8,45.8,116,52.2,168.6,20l105,105
		c12.5,12.5,32.8,12.5,45.3,0c12.5-12.5,12.5-32.8,0-45.3L325.4,280.8c32.2-52.6,25.8-122.8-20-168.6
		C251.9,58.7,165.2,58.6,111.6,112.1z M274.4,274.9c-36.4,36.4-95.3,36.4-131.6,0c-36.4-36.4-36.4-95.3,0-131.6
		c36.4-36.4,95.3-36.4,131.6,0C310.8,179.6,310.8,238.6,274.4,274.9z"/>
	<path opacity="3.000000e-02" fill="#FFFFFF" enable-background="new    " d="M111.5,112C111.5,112,111.5,112,111.5,112l31.1,31.2
		c0,0,0,0,0,0c36.4-36.4,95.2-36.4,131.6-0.1c36.4,36.4,36.3,95.2-0.1,131.6c0,0,0,0,0,0l156.4,156.4c12.5-12.5,12.5-32.8,0-45.3
		L325.4,280.8c32.2-52.6,25.7-122.9-20-168.6C251.9,58.6,165.1,58.5,111.5,112z"/>
</g>
</svg>
